<?xml version="1.0" encoding="utf-8"?>
<!-- Generator: Adobe Illustrator 16.0.0, SVG Export Plug-In . SVG Version: 6.00 Build 0)  -->
<!DOCTYPE svg PUBLIC "-//W3C//DTD SVG 1.0//EN" "http://www.w3.org/TR/2001/REC-SVG-20010904/DTD/svg10.dtd">
<svg version="1.0" id="Layer_1" xmlns="http://www.w3.org/2000/svg" xmlns:xlink="http://www.w3.org/1999/xlink" x="0px" y="0px"
	 width="1700px" height="1700px" viewBox="0 -350 1700 1700" enable-background="new 0 -350 1700 1700" xml:space="preserve">
<g id="Vexels">
</g>
<g>
	<defs>
		<rect id="SVGID_1_" x="-29.769" y="-363.037" width="1755.175" height="1721.98"/>
	</defs>
	<clipPath id="SVGID_2_">
		<use xlink:href="#SVGID_1_"  overflow="visible"/>
	</clipPath>
	<g id="background" clip-path="url(#SVGID_2_)">
		<g>
			<g>
				<path fill="#2E3E4D" d="M1917.936-363.037L1672.979-65.414c-6.895,8.378-11.085,18.651-12.013,29.46l-27.251,317.111
					c-0.841,9.788-4.357,19.157-10.164,27.08l-154.929,211.43c-25.613,34.95-79.966,26.62-93.931-14.398l-12.2-35.827
					c-7.392-21.71-27.783-36.306-50.716-36.306h-54.61c-35.205,0-60.843-33.377-51.766-67.391l48.069-180.108
					c13.45-50.385-45.703-88.334-85.896-55.108l0,0c-7.536,6.229-16.632,10.277-26.303,11.706l-35.175,5.198
					c-39.183,5.792-70.885-31.471-58.892-69.219l140.178-441.25H1917.936z"/>
				<path fill="#2E3E4D" d="M1256.345,1358.939l39.284-123.656c17.327-54.545-28.479-108.38-85.094-100.016l-50.823,7.51
					c-13.973,2.065-27.116,7.918-38.001,16.914h-0.002c-58.076,48.007-143.541-6.827-124.111-79.625l69.455-260.236
					c13.117-49.146-23.928-97.37-74.793-97.37h-78.906c-33.137,0-62.599-21.091-73.28-52.46l-17.625-51.767
					c-20.181-59.268-98.713-71.303-135.72-20.804L462.875,902.924c-8.39,11.449-13.47,24.984-14.686,39.128l-35.827,416.888
					H1256.345z"/>
				<path fill="#ECB8AB" d="M1432.82-249.047l-60.266,227.301c-14.08,53.104-71.752,81.612-122.493,60.549l-34.656-14.386
					c-45.962-19.079-98.714,2.422-118.243,48.194l-60.122,140.913c-9.49,22.237-9.712,47.34-0.614,69.742L1145.858,552.8
					c19.104,47.046-4.121,100.614-51.52,118.83L774.979,794.369c-30.282,11.639-52.048,38.562-57.082,70.607l-22.297,141.873
					c-4.66,29.643-23.671,55.063-50.787,67.911l-153.599,72.776c-33.003,15.636-72.165,9.958-99.374-14.398l-89.937-80.523
					c-31.841-28.512-79.263-30.934-113.845-5.816L10.107,1176.04c-4.855,3.528-9.351,7.527-13.416,11.943l-157.474,170.956V-363.037
					h1505.897C1404.677-363.037,1448.083-306.621,1432.82-249.047z"/>
				<path fill="#FACDCA" d="M568.534,1358.939l34.845-69.384c20.613-40.331-8.158-88.314-53.444-89.136l-40.653-0.736
					c-11.178-0.201-22.199,2.657-31.867,8.271v0.003c-51.575,29.937-111.18-23.97-86.56-78.282l162.648-334.514
					c16.623-36.668-6.036-79.125-45.747-85.732l-61.604-10.244c-25.868-4.304-46.132-24.596-50.398-50.474l-7.039-42.703
					c-8.06-48.892-67.809-68.485-103.259-33.864L85.46,767.475v591.465H568.534z"/>
				<path fill="#E7EBEA" d="M305.414,735.376l-40.652-0.736c-11.178-0.202-22.2,2.657-31.867,8.271l0,0
					c-51.575,29.938-111.179-23.969-86.559-78.283l162.648-334.509c16.622-36.666-6.036-79.127-45.749-85.732l-61.604-10.246
					c-25.869-4.303-46.132-24.595-50.399-50.471l-7.04-42.703c-8.058-48.892-67.808-68.486-103.258-33.866L-159.061,302.43v1021.112
					l351.635-167.937l166.284-331.094C379.471,784.177,350.701,736.193,305.414,735.376z"/>
				<rect x="-160.782" y="1162.635" fill="#2E3E4D" width="721.508" height="196.305"/>
				<path fill="#FF5B59" d="M-155.864,793.705L57.859,520.238c36.71-46.974,93.365-73.962,152.973-72.873l48.925,0.895
					c52.547,0.961,85.525,57.108,60.773,103.471L136.783,895.931c-16.502,30.911-4.898,69.345,25.953,85.961l0,0
					c25.905,13.949,57.079,13.98,83.013,0.084l98.139-52.586c45.742-24.51,82.147-63.396,103.593-110.655l18.901-41.652
					c17.763-39.138,62.287-58.456,103.004-44.689l0,0c52.186,17.643,73.379,80.028,42.742,125.811l-124.388,185.88
					c-10.485,15.669,1.113,36.636,19.96,36.079l146.464-4.346c15.207-0.45,26.722,13.616,23.275,28.435l-8.752,37.632
					c-4.702,20.21,17.47,35.95,35,24.845l253.741-160.771c34.998-22.176,79.004-24.573,116.205-6.333l99.793,48.934
					c9.642,4.727,14.773,15.45,12.414,25.924l-49.764,220.688c-8.408,37.289-41.531,63.774-79.755,63.774H442.821l38.231-73.847
					c7.769-15.007-2.604-33.017-19.481-33.831l-117.343-5.63c-5.996-0.289-11.871,1.759-16.388,5.711l-75.772,66.333
					c-6.681,5.849-16.116,7.369-24.297,3.915l-112.986-47.722c-9.323-3.938-15.017-13.466-14.065-23.542l3.911-41.456
					c2.021-21.383-23.605-33.78-39.121-18.932l-169.861,162.556c-4.315,4.134-10.059,6.438-16.035,6.438h-40.396V1141.12
					c0-3.186,0.656-6.337,1.927-9.256l70.081-160.991c9.467-21.75-15.961-42.003-35.042-27.911l0,0
					c-15.306,11.306-36.965,0.377-36.965-18.654V807.985C-160.782,802.81-159.052,797.783-155.864,793.705z"/>
				<path fill="#FACDCA" d="M668.434-363.037l-155.466,188.89c-4.375,5.316-7.034,11.837-7.623,18.697L488.048,45.813
					c-0.533,6.211-2.763,12.157-6.451,17.186L383.27,197.185c-16.254,22.182-50.752,16.896-59.615-9.139l-7.742-22.738
					c-4.693-13.777-17.634-23.042-32.188-23.042h-34.661c-22.343,0-38.615-21.182-32.851-42.77l30.508-114.308
					c8.534-31.978-29.009-56.063-54.516-34.977l0,0c-4.782,3.954-10.556,6.523-16.693,7.429l-22.323,3.299
					c-24.867,3.674-44.988-19.975-37.377-43.933l88.964-280.042H668.434z"/>
				<path fill="#42505D" d="M1600.173-363.037l-6.343,19.96c-7.611,23.958,12.51,47.606,37.379,43.934l22.322-3.3
					c6.136-0.905,11.911-3.477,16.693-7.428l0,0c25.509-21.087,63.05,2.999,54.515,34.977l-30.508,114.308
					c-5.762,21.589,10.51,42.771,32.852,42.771h34.662c14.554,0,27.494,9.264,32.186,23.041l7.742,22.739
					c8.864,26.032,43.361,31.321,59.613,9.138l98.331-134.187c3.687-5.028,5.916-10.974,6.451-17.185l12.785-148.769H1600.173z"/>
				<path fill="#42505D" d="M904.214-363.037l-7.336,27.483c-5.761,21.588,10.512,42.77,32.854,42.77h34.658
					c14.556,0,27.497,9.264,32.189,23.042l7.742,22.738c8.862,26.035,43.358,31.322,59.611,9.139l91.724-125.172H904.214z"/>
				<path fill="#2E3E4D" d="M773.305-71.313l41.926-54.171c8.829-11.408,12.599-25.937,10.433-40.198l-10.314-67.877
					c-3.431-22.563-20.986-40.36-43.499-44.097l-4.985-0.828c-21.214-3.521-42.439,6.191-53.644,24.543l-37.062,60.707
					c-6.612,10.833-9.098,23.689-6.997,36.206L679.6-94.857c5.694,33.921,41.813,53.398,73.285,39.518l0,0
					C760.913-58.882,767.932-64.372,773.305-71.313z"/>
				<path fill="#E7EBEA" d="M545.566-180.285l23.132-18.31c4.872-3.856,7.951-9.54,8.521-15.727l2.71-29.444
					c0.9-9.788-4.596-19.045-13.621-22.937l-2-0.861c-8.504-3.668-18.383-1.803-24.965,4.71l-21.775,21.545
					c-3.886,3.843-6.256,8.963-6.671,14.413l-2.07,27.072c-1.128,14.771,11.955,26.65,26.549,24.104l0,0
					C539.099-176.371,542.602-177.939,545.566-180.285z"/>
				<path fill="#2E3E4D" d="M936.213-175.705l15.113-11.961c3.182-2.519,5.194-6.231,5.565-10.272l1.77-19.234
					c0.589-6.394-3.004-12.442-8.899-14.983l-1.305-0.563c-5.556-2.396-12.01-1.178-16.31,3.076l-14.227,14.075
					c-2.54,2.51-4.085,5.854-4.357,9.416l-1.353,17.685c-0.737,9.65,7.81,17.409,17.343,15.748l0,0
					C931.99-173.147,934.277-174.172,936.213-175.705z"/>
				<path fill="#2E3E4D" d="M1173.342,264.698l22.708-17.973c4.779-3.784,7.805-9.364,8.361-15.436l2.662-28.902
					c0.886-9.609-4.51-18.694-13.372-22.514l-1.961-0.846c-8.35-3.599-18.046-1.77-24.507,4.624l-21.375,21.147
					c-3.813,3.773-6.138,8.796-6.548,14.146l-2.031,26.573c-1.11,14.498,11.734,26.161,26.06,23.66l0,0
					C1166.993,268.542,1170.433,267,1173.342,264.698z"/>
				<path fill="#FF5B59" d="M1121.832,960.671l22.708-17.972c4.783-3.785,7.807-9.364,8.363-15.437l2.662-28.9
					c0.884-9.609-4.512-18.694-13.373-22.516l-1.962-0.846c-8.35-3.599-18.046-1.769-24.506,4.624l-21.376,21.148
					c-3.813,3.773-6.136,8.797-6.548,14.146l-2.031,26.575c-1.11,14.499,11.734,26.161,26.06,23.66l0,0
					C1115.485,964.516,1118.923,962.975,1121.832,960.671z"/>
				<path fill="#FF5B59" d="M610.936,1031.257l15.109-11.96c3.185-2.519,5.196-6.231,5.566-10.274l1.771-19.234
					c0.588-6.394-3.002-12.44-8.899-14.983l-1.307-0.563c-5.556-2.396-12.008-1.18-16.31,3.077l-14.225,14.073
					c-2.541,2.513-4.086,5.855-4.359,9.417l-1.352,17.686c-0.738,9.651,7.812,17.41,17.344,15.748l0,0
					C606.71,1033.814,608.999,1032.791,610.936,1031.257z"/>
				<path fill="#E7EBEA" d="M413.536,680.572l23.132-18.311c4.872-3.856,7.953-9.539,8.521-15.726l2.709-29.445
					c0.901-9.788-4.596-19.044-13.619-22.936l-2-0.86c-8.504-3.668-18.382-1.805-24.965,4.708l-21.777,21.547
					c-3.886,3.843-6.256,8.961-6.673,14.411l-2.067,27.071c-1.13,14.771,11.953,26.65,26.546,24.104l0,0
					C407.068,684.487,410.571,682.918,413.536,680.572z"/>
			</g>
		</g>
	</g>
</g>
</svg>
