<?xml version="1.0" standalone="no"?>
<svg version="1.1" id="downloadSvg" xmlns="http://www.w3.org/2000/svg" xmlns:xlink="http://www.w3.org/1999/xlink" x="0px" y="0px" viewBox="0 0 1200 1200" enable-background="new 0 0 1200 1200" xml:space="preserve" height="512" width="512">
<g>
	<path fill="none" d="M540.141,925.433c-2.555,3.7-5.5,7.977-7.556,11.226c8.445,13.905,35.663,48.875,52.693,70.75&#xA;&#9;&#9;c5.484,7.042,10.844,13.929,15.814,20.387c29.12-35.835,56.884-73.936,65.624-92.15c-15.3-23.402-51.259-83.619-65.764-152.944&#xA;&#9;&#9;C589.452,853.78,558.463,898.814,540.141,925.433z"/>
	<path fill="none" d="M609.753,687.779c13.82-87.211,94.308-209.251,120.607-247.322c-24.726-51.68-95.305-187.914-130.703-255.945&#xA;&#9;&#9;C557.045,263.902,488.539,396.21,468.876,438.09c4.487,7.619,11.607,18.743,18.572,29.61&#xA;&#9;&#9;c35.492,55.372,92.547,144.422,103.329,220.079H609.753z"/>
	<path fill="#331433" d="M991.284,475.202c-110.236-7.563-238.417,59.654-266.131,222.697h-68.596&#xA;&#9;&#9;c9.66-73.514,88.979-196.996,120.747-240.988c5.001-6.925,5.936-15.985,2.446-23.783c-22.81-51.018-152.889-300.022-158.42-310.601&#xA;&#9;&#9;c-4.066-7.798-12.09-12.729-20.893-12.846c-8.881,0.164-16.936,4.604-21.22,12.293c-36.427,65.453-145.738,275.187-159.044,307.828&#xA;&#9;&#9;c-2.306,5.695-2.353,12.067-0.093,17.785c3.568,9.083,11.732,21.999,27.079,45.939c31.788,49.601,89.053,139.018,96.647,204.375&#xA;&#9;&#9;h-68.956C447.12,534.84,318.982,467.645,208.716,475.202C113.786,481.512,50,539.564,50,619.647&#xA;&#9;&#9;c0,47.808,15.082,87.273,43.625,114.126c24.508,23.067,57.818,35.765,93.809,35.765c57.741,0,119.096-34.526,119.096-98.522&#xA;&#9;&#9;c0-8.811-7.136-15.954-15.954-15.954s-15.954,7.144-15.954,15.954c0,43.266-44.918,66.614-87.187,66.614&#xA;&#9;&#9;c-27.826,0-53.378-9.621-71.95-27.086c-21.968-20.675-33.576-52.108-33.576-90.895c0-71.864,64.752-108.338,128.927-112.607&#xA;&#9;&#9;c95.145-6.354,205.286,51.202,231.636,190.859h-0.378c-17.621,0-31.908,14.287-31.908,31.908c0,17.621,14.287,31.908,31.908,31.908&#xA;&#9;&#9;h6.684c0.123,58.644-16.916,99.958-48.424,113.83c-22.342,9.847-44.7,2.306-55.217-10.283c-10.797-12.885-9.847-30.234,2.68-48.852&#xA;&#9;&#9;c4.908-7.315,2.976-17.232-4.347-22.147c-7.307-4.916-17.216-2.968-22.14,4.339c-20.535,30.537-20.784,63.116-0.67,87.141&#xA;&#9;&#9;c14.287,17.068,35.85,26.253,58.379,26.253c11.42,0,23.09-2.36,34.183-7.245c22.11-9.739,68.027-42.287,67.548-143.035h74.595&#xA;&#9;&#9;c-7.845,68.139-36.433,110.106-54.66,136.585c-11.919,17.31-20.519,29.821-16.967,45.066c3.303,14.092,18.821,35.687,63.77,93.443&#xA;&#9;&#9;c13.15,16.897,25.567,32.851,33.03,43.399c4.253,6.022,11.062,9.745,18.431,10.088c0.374,0.016,0.748,0.023,1.106,0.023&#xA;&#9;&#9;c6.98,0,13.633-3.046,18.182-8.374c28.013-32.734,93.669-112.568,98.53-146.704c0.872-6.139-0.67-12.371-4.3-17.395&#xA;&#9;&#9;c-0.612-0.842-53.316-74.561-66.781-156.13h73.52c-0.479,100.748,45.438,133.296,67.548,143.035&#xA;&#9;&#9;c11.093,4.884,22.763,7.245,34.183,7.245c22.529-0.008,44.092-9.185,58.379-26.253c20.114-24.025,19.865-56.603-0.67-87.141&#xA;&#9;&#9;c-4.923-7.307-14.832-9.263-22.14-4.339c-7.323,4.916-9.255,14.832-4.347,22.147c12.527,18.618,13.477,35.967,2.68,48.852&#xA;&#9;&#9;c-10.501,12.589-32.921,20.138-55.217,10.283c-31.507-13.871-48.546-55.185-48.424-113.83h6.684&#xA;&#9;&#9;c17.621,0,31.908-14.287,31.908-31.908c0-17.621-14.287-31.908-31.908-31.908h-0.374&#xA;&#9;&#9;c26.379-139.637,136.74-197.145,231.632-190.859c64.175,4.269,128.927,40.742,128.927,112.607&#xA;&#9;&#9;c0,87.086-56.853,117.982-105.525,117.982c-42.269,0-87.187-23.347-87.187-66.614c0-8.811-7.136-15.954-15.954-15.954&#xA;&#9;&#9;c-8.818,0-15.954,7.144-15.954,15.954c0,28.933,13.555,54.944,38.156,73.243c21.906,16.305,50.652,25.279,80.94,25.279&#xA;&#9;&#9;c68.398,0,137.434-46.344,137.434-149.89C1150,539.564,1086.214,481.512,991.284,475.202z M468.876,438.09&#xA;&#9;&#9;c19.662-41.88,88.169-174.188,130.781-253.577c35.398,68.031,105.977,204.265,130.703,255.945&#xA;&#9;&#9;c-26.3,38.07-106.787,160.111-120.607,247.322h-18.977C579.995,612.121,522.94,523.072,487.448,467.7&#xA;&#9;&#9;C480.484,456.833,473.363,445.708,468.876,438.09z M601.091,1027.796c-4.97-6.458-10.33-13.344-15.814-20.387&#xA;&#9;&#9;c-17.029-21.875-44.248-56.845-52.693-70.75c2.057-3.248,5.001-7.525,7.556-11.226c18.322-26.619,49.312-71.654,60.81-142.731&#xA;&#9;&#9;c14.505,69.325,50.465,129.542,65.764,152.944C657.974,953.86,630.21,991.961,601.091,1027.796z" style="fill: rgb(22, 72, 154);"/>
</g>
</svg>