<?xml version="1.0" encoding="utf-8"?>
<!-- Designed by Vexels.com - 2020 All Rights Reserved - https://vexels.com/terms-and-conditions/  -->
<svg version="1.1" id="Layer_1" xmlns="http://www.w3.org/2000/svg" xmlns:xlink="http://www.w3.org/1999/xlink" x="0px" y="0px"
	 viewBox="0 0 1200 1200" enable-background="new 0 0 1200 1200" xml:space="preserve">
<g>
	<g>
		<path fill="#BB995F" d="M275.727,662.58h150.641c1.994,0,3.675-1.491,3.914-3.472c10.528-87.537,85.057-153.548,173.366-153.548
			c87.341,0,161.774,65.198,173.13,151.657c0.259,1.961,1.93,3.429,3.909,3.429h142.094c2.176,0,3.942-1.766,3.942-3.942
			c0-2.176-1.766-3.942-3.942-3.942H784.113c-13.366-88.656-90.339-155.086-180.465-155.086
			c-91.122,0-168.21,67.259-180.742,157.021H275.727c-2.176,0-3.942,1.766-3.942,3.942S273.551,662.58,275.727,662.58z"/>
		<path fill="#BB995F" d="M940.576,665.998c-5.399,0-10.026,3.114-12.321,7.616H758.423
			c-3.452-82.386-71.555-148.344-154.775-148.344c-83.207,0-151.303,65.948-154.772,148.32l-178.62-0.677
			c-2.427-4.038-6.806-6.768-11.861-6.768c-7.665,0-13.878,6.214-13.878,13.878c0,7.665,6.214,13.878,13.878,13.878
			c5.492,0,10.196-3.217,12.446-7.846l184.441,0.698c0.01,0,0.018,0,0.026,0c1.737,0,3.406-0.688,4.638-1.915
			c1.237-1.234,1.933-2.908,1.933-4.656c0-78.174,63.599-141.773,141.771-141.773c78.174,0,141.773,63.599,141.773,141.773
			c0,3.629,2.941,6.57,6.57,6.57h176.598c2.395,4.164,6.838,7,11.987,7c7.665,0,13.878-6.214,13.878-13.878
			C954.454,672.211,948.241,665.998,940.576,665.998z"/>
		<path fill="#BB995F" d="M726.658,677.784H650.73c-0.075-1.951-0.289-3.863-0.581-5.75l69.121-16.075
			c2.12-0.493,3.439-2.613,2.946-4.733c-0.495-2.12-2.61-3.444-4.733-2.946l-69.143,16.08c-0.564-1.747-1.195-3.463-1.939-5.12
			l37.493-20.979c1.899-1.063,2.579-3.465,1.514-5.364c-1.06-1.899-3.465-2.579-5.364-1.514l-37.474,20.968
			c-0.736-1.122-1.518-2.207-2.339-3.264l52.207-50.575c1.563-1.514,1.601-4.009,0.087-5.574c-1.514-1.566-4.009-1.604-5.574-0.087
			l-52.021,50.395c-1.377-1.29-2.837-2.486-4.354-3.614l23.822-38.016c1.155-1.845,0.595-4.278-1.247-5.436
			c-1.848-1.147-4.276-0.598-5.436,1.247l-23.799,37.981c-1.461-0.763-2.967-1.447-4.509-2.065l20.409-69.862
			c0.611-2.092-0.588-4.281-2.677-4.889c-2.089-0.608-4.281,0.588-4.889,2.677l-20.377,69.753c-2.297-0.518-4.65-0.877-7.056-1.065
			v-72.363c0-2.176-1.766-3.942-3.942-3.942c-2.176,0-3.942,1.766-3.942,3.942v72.364c-0.995,0.078-1.974,0.2-2.952,0.335
			l-11.705-40.071c-0.608-2.089-2.803-3.285-4.889-2.677c-2.089,0.608-3.288,2.797-2.677,4.889l11.541,39.51
			c-1.741,0.533-3.429,1.181-5.083,1.894l-37.399-59.677c-1.157-1.845-3.588-2.394-5.436-1.247
			c-1.843,1.157-2.402,3.591-1.247,5.436l37.094,59.19c-1.782,1.132-3.485,2.37-5.103,3.713l-31.79-30.796
			c-1.566-1.512-4.06-1.476-5.574,0.087c-1.514,1.566-1.476,4.06,0.087,5.574l31.62,30.631c-1.082,1.231-2.109,2.51-3.068,3.845
			l-59.635-33.367c-1.894-1.06-4.301-0.385-5.364,1.514c-1.065,1.899-0.385,4.301,1.514,5.364l59.434,33.254
			c-0.983,1.96-1.88,3.97-2.602,6.067l-65.116-15.143c-2.122-0.488-4.24,0.826-4.733,2.946s0.826,4.24,2.946,4.733l64.98,15.111
			c-0.385,2.197-0.67,4.428-0.758,6.714h-63.216c-2.176,0-3.942,1.766-3.942,3.942c0,2.176,1.766,3.942,3.942,3.942h238.857
			c2.176,0,3.942-1.766,3.942-3.942C730.6,679.55,728.835,677.784,726.658,677.784z"/>
		<path fill="#BB995F" d="M659.23,590.414c1.311,0,2.595-0.654,3.341-1.848l6.406-10.22c1.157-1.845,0.601-4.278-1.245-5.433
			c-1.845-1.155-4.278-0.601-5.433,1.245l-6.406,10.22c-1.157,1.845-0.601,4.278,1.245,5.433
			C657.79,590.219,658.514,590.414,659.23,590.414z"/>
		<path fill="#BB995F" d="M697.236,630.223c0.652,0,1.314-0.162,1.922-0.503l10.04-5.618c1.899-1.063,2.579-3.465,1.514-5.364
			c-1.06-1.899-3.467-2.574-5.364-1.514l-10.04,5.618c-1.899,1.063-2.579,3.465-1.514,5.364
			C694.516,629.496,695.856,630.223,697.236,630.223z"/>
		<path fill="#BB995F" d="M572.846,575.955c0.367,0,0.739-0.051,1.109-0.159c2.089-0.608,3.288-2.797,2.677-4.889l-2.815-9.64
			c-0.608-2.089-2.797-3.285-4.889-2.677c-2.089,0.608-3.288,2.797-2.677,4.889l2.815,9.64
			C569.566,574.839,571.139,575.955,572.846,575.955z"/>
		<path fill="#BB995F" d="M522.476,605.538c1.029,0,2.058-0.4,2.831-1.199c1.514-1.563,1.476-4.06-0.087-5.574l-6.106-5.916
			c-1.566-1.514-4.06-1.476-5.574,0.087s-1.476,4.06,0.087,5.574l6.106,5.916C520.5,605.169,521.488,605.538,522.476,605.538z"/>
		<path fill="#BB995F" d="M218.933,665.128c-6.527,0-11.963,4.522-13.445,10.593H77.323c-1.482-6.071-6.918-10.593-13.445-10.593
			c-7.665,0-13.878,6.213-13.878,13.878c0,7.665,6.214,13.878,13.878,13.878c6.044,0,11.133-3.887,13.037-9.28h128.98
			c1.904,5.392,6.993,9.28,13.037,9.28c7.665,0,13.878-6.214,13.878-13.878C232.811,671.341,226.598,665.128,218.933,665.128z"/>
		<path fill="#BB995F" d="M80.757,665.532H200.8c2.176,0,3.942-1.766,3.942-3.942s-1.766-3.942-3.942-3.942H80.757
			c-2.176,0-3.942,1.766-3.942,3.942S78.58,665.532,80.757,665.532z"/>
		<path fill="#BB995F" d="M200.8,694.44H80.757c-2.176,0-3.942,1.766-3.942,3.942s1.766,3.942,3.942,3.942H200.8
			c2.176,0,3.942-1.766,3.942-3.942S202.976,694.44,200.8,694.44z"/>
		<path fill="#BB995F" d="M1136.122,665.128c-6.527,0-11.963,4.522-13.445,10.593H994.511c-1.482-6.071-6.918-10.593-13.445-10.593
			c-7.665,0-13.878,6.213-13.878,13.878c0,7.665,6.214,13.878,13.878,13.878c6.044,0,11.133-3.887,13.037-9.28h128.98
			c1.904,5.392,6.993,9.28,13.037,9.28c7.665,0,13.878-6.214,13.878-13.878C1150,671.341,1143.786,665.128,1136.122,665.128z"/>
		<path fill="#BB995F" d="M997.945,665.532h120.043c2.176,0,3.942-1.766,3.942-3.942s-1.766-3.942-3.942-3.942H997.945
			c-2.176,0-3.942,1.766-3.942,3.942S995.769,665.532,997.945,665.532z"/>
		<path fill="#BB995F" d="M1117.988,694.44H997.945c-2.176,0-3.942,1.766-3.942,3.942s1.766,3.942,3.942,3.942h120.043
			c2.176,0,3.942-1.766,3.942-3.942S1120.165,694.44,1117.988,694.44z"/>
	</g>
	<g>
		<path fill="#D4B76B" d="M469.326,556.658c1.563,2.184,3.122,4.373,4.677,6.565c15.156-16.766,33.519-30.491,54.019-40.369
			c-1.317-2.285-2.656-4.553-3.982-6.831C503.369,526.071,484.794,539.869,469.326,556.658z"/>
		<path fill="#D4B76B" d="M784.113,652.761c-10.779-71.496-62.936-128.511-129.987-147.914c2.476,3.547,4.956,7.091,7.393,10.663
			c60.498,21.372,106.528,75.237,115.259,141.707c0.259,1.961,1.93,3.429,3.909,3.429h25.205c-1.358-2.62-2.731-5.255-4.099-7.884
			H784.113z"/>
		<path fill="#D4B76B" d="M328.752,654.696c1.562,2.628,3.128,5.256,4.691,7.884h65.287c-1.686-2.634-3.39-5.258-5.092-7.884
			H328.752z"/>
		<path fill="#D4B76B" d="M339.757,673.177c2.616,4.39,5.241,8.78,7.87,13.17l66.286,0.251c-2.753-4.395-5.514-8.786-8.286-13.171
			L339.757,673.177z"/>
		<path fill="#D4B76B" d="M485.712,579.881c2.595,3.728,5.188,7.46,7.768,11.205c13.604-16.789,30.979-30.38,50.793-39.569
			c-2.152-3.847-4.299-7.698-6.467-11.532C517.711,549.468,499.967,563.144,485.712,579.881z"/>
		<path fill="#D4B76B" d="M758.423,673.614c-2.264-54.031-32.337-100.995-76.243-126.923c6.712,10.421,13.289,20.927,19.776,31.485
			c18.13,17.478,31.622,39.715,38.446,64.693c8.454,14.613,16.828,29.256,25.185,43.885h53.789
			c-2.255-4.376-4.512-8.755-6.775-13.14H758.423z"/>
		<path fill="#D4B76B" d="M586.25,631.941c-1.741,0.533-3.429,1.181-5.083,1.894l-37.399-59.677
			c-1.157-1.845-3.588-2.394-5.436-1.247c-1.843,1.157-2.402,3.591-1.247,5.436l37.094,59.19c-1.782,1.132-3.485,2.37-5.103,3.713
			l-31.79-30.796c-1.566-1.512-4.06-1.476-5.574,0.087c-1.514,1.566-1.476,4.06,0.087,5.574l31.62,30.631
			c-1.082,1.231-2.109,2.51-3.068,3.845l-42.551-23.808c3.262,4.832,6.525,9.665,9.784,14.506l28.717,16.068
			c-0.983,1.96-1.88,3.97-2.602,6.067l-13.286-3.09c2.158,3.201,4.319,6.402,6.481,9.602l4.884,1.136
			c-0.296,1.69-0.5,3.409-0.634,5.148c2.136,3.153,4.281,6.3,6.424,9.45h61.123c-11.941-20.732-23.537-41.679-35.049-62.663
			L586.25,631.941z"/>
		<path fill="#D4B76B" d="M519.114,592.85c-1.566-1.514-4.06-1.476-5.574,0.087s-1.476,4.06,0.087,5.574l6.106,5.916
			c0.767,0.742,1.755,1.111,2.744,1.111c1.029,0,2.058-0.4,2.831-1.199c1.514-1.563,1.476-4.06-0.087-5.574L519.114,592.85z"/>
		<path fill="#D4B76B" d="M178.754,675.721h-57.577c1.623,2.628,3.248,5.255,4.867,7.884h57.15
			C181.719,680.976,180.241,678.348,178.754,675.721z"/>
		<path fill="#D4B76B" d="M168.345,657.648h-58.446c1.658,2.624,3.308,5.252,4.95,7.884h58.086
			C171.419,662.898,169.884,660.273,168.345,657.648z"/>
		<path fill="#D4B76B" d="M189.263,694.44H132.73c1.628,2.632,3.261,5.259,4.897,7.884h56.053
			C192.208,699.698,190.734,697.072,189.263,694.44z"/>
		<path fill="#D4B76B" d="M999.622,675.721c1.683,2.621,3.311,5.257,4.969,7.884h59.353c-1.518-2.632-3.073-5.256-4.604-7.884
			H999.622z"/>
		<path fill="#D4B76B" d="M1048.69,657.648h-50.745c-2.176,0-3.942,1.766-3.942,3.942s1.766,3.942,3.942,3.942h55.426
			C1051.817,662.903,1050.26,660.273,1048.69,657.648z"/>
		<path fill="#D4B76B" d="M1070.114,694.44h-58.717c1.613,2.619,3.174,5.257,4.764,7.884h58.442
			C1073.119,699.691,1071.609,697.069,1070.114,694.44z"/>
	</g>
</g>
</svg>
